# AST/ASF file generated using VICON BodyLanguage
# -----------------------------------------------
:version 1.10
:name VICON
:units
  mass 1.0
  length 0.45
  angle deg
:documentation
   .ast/.asf automatically generated from VICON data using
   VICON BodyBuilder and BodyLanguage model FoxedUp or BRILLIANT.MOD
:root
   order TX TY TZ RX RY RZ
   axis XYZ
   position 0 0 0  
   orientation 0 0 0 
:bonedata
  begin
     id 1 
     name lhipjoint
     direction 0.700308 -0.549349 0.455834 
     length 2.59063 
     axis 0 0 0  XYZ
  end
  begin
     id 2 
     name lfemur
     direction 0.34202 -0.939693 0  
     length 6.31066  
     axis 0 0 20  XYZ
    dof rx ry rz
    limits (-160.0 20.0)
           (-70.0 70.0)
           (-60.0 70.0)
  end
  begin
     id 3 
     name ltibia
     direction 0.34202 -0.939693 0   
     length 7.36093   
     axis 0 0 20   XYZ
    dof rx
    limits (-10.0 170.0)
  end
  begin
     id 4 
     name lfoot
     direction 0.0905332 -0.248738 0.96433   
     length 2.0233   
     axis -90 7.62852e-016 20   XYZ
    dof rx rz
    limits (-45.0 90.0)
           (-70.0 20.0)
  end
  begin
     id 5 
     name ltoes
     direction 1.53573e-011 -4.21855e-011 1   
     length 1.01524   
     axis -90 7.62852e-016 20   XYZ
    dof rx
    limits (-90.0 20.0)
  end
  begin
     id 6 
     name rhipjoint
     direction -0.61416 -0.607328 0.503944   
     length 2.34332  
     axis 0 0 0  XYZ 
  end
  begin
     id 7 
     name rfemur
     direction -0.34202 -0.939693 0   
     length 6.58548   
     axis 0 0 -20   XYZ
    dof rx ry rz
    limits (-160.0 20.0)
           (-70.0 70.0)
           (-70.0 60.0)
  end
  begin
     id 8 
     name rtibia
     direction -0.34202 -0.939693 0   
     length 7.20707   
     axis 0 0 -20   XYZ
    dof rx
    limits (-10.0 170.0)
 end
 begin
     id 9 
     name rfoot
     direction -0.136772 -0.375778 0.916561   
     length 1.92184  
     axis -90 -7.62852e-016 -20   XYZ
    dof rx rz
    limits (-45.0 90.0)
           (-20.0 70.0)
  end
  begin
     id 10 
     name rtoes
     direction -1.53535e-011 -4.21828e-011 1   
     length 0.951089   
     axis -90 -7.62852e-016 -20   XYZ
    dof rx
    limits (-90.0 20.0)
  end
  begin
     id 11 
     name lowerback
     direction -0.0444974 0.988086 -0.147332   
     length 1.9609   
     axis 0 0 0   XYZ
    dof rx ry rz
    limits (-20.0 45.0)
           (-30.0 30.0)
           (-30.0 30.0)
  end
  begin
     id 12 
     name upperback
     direction 0.00613146 0.999513 0.0306081   
     length 1.94944   
     axis 0 0 0   XYZ
    dof rx ry rz
    limits (-20.0 45.0)
           (-30.0 30.0)
           (-30.0 30.0)
  end
  begin
     id 13 
     name thorax
     direction 0.0254621 0.994518 0.101418   
     length 2.0119   
     axis 0 0 0   XYZ
    dof rx ry rz
    limits (-20.0 45.0)
           (-30.0 30.0)
           (-30.0 30.0)
  end
  begin
     id 14 
     name lowerneck
     direction 0.0168698 0.977854 0.208608   
     length 1.6375   
     axis 0 0 0   XYZ
    dof rx ry rz
    limits (-20.0 45.0)
           (-30.0 30.0)
           (-30.0 30.0)
  end
  begin
     id 15 
     name upperneck
     direction -0.0283988 0.989338 -0.142843   
     length 1.6851   
     axis 0 0 0   XYZ
    dof rx ry rz
    limits (-20.0 45.0)
           (-30.0 30.0)
           (-30.0 30.0)
  end
  begin
     id 16
     name head
     direction -0.0129422 0.99741 -0.0707489  
     length 1.69029  
     axis 0 0 0   XYZ
    dof rx ry rz
    limits (-20.0 45.0)
           (-30.0 30.0)
           (-30.0 30.0)
  end
  begin
     id 17 
     name lclavicle
     direction 0.820295 0.564628 -0.0911715  
     length 3.16484  
     axis 0 0 0   XYZ
    dof ry rz
    limits (-20.0 10.0)
           (0.0 20.0)
  end
  begin
     id 18 
     name lhumerus
     direction 1 -4.48969e-011 1.00186e-027   
     length 5.17853   
     axis 180 -30 -90   XYZ
    dof rx ry rz
    limits (-60.0 90.0)
           (-90.0 90.0)
           (-90.0 90.0)
  end
  begin
     id 19
     name lradius
     direction 1 -4.48966e-011 -1.52922e-027   
     length 3.40399   
     axis 180 -30 -90   XYZ
    dof rx
    limits (-10.0 170.0)
  end
  begin
     id 20
     name lwrist
     direction 1 -4.48981e-011 -3.80893e-027   
     length 1.70199   
     axis 1.1049e-015 90 90   XYZ
    dof ry
    limits (-180.0 0.0)
 end
  begin
     id 21 
     name lhand
     direction 1 -4.48957e-011 -7.61786e-027   
     length 0.708964   
     axis 4.86085e-015 90 90   XYZ
    dof rx rz
    limits (-90.0 90.0)
           (-45.0 45.0)
  end
  begin
     id 22 
     name lfingers
     direction 1 -4.48929e-011 -1.52357e-026   
     length 0.571585   
     axis 9.7217e-015 90 90   XYZ
    dof rx
    limits (0.0 90.0)
  end
  begin
     id 23
     name lthumb
     direction 0.707107 -6.34905e-011 0.707107   
     length 0.820685   
     axis -90 45 2.85299e-015   XYZ
    dof rx rz
    limits (-45.0 45.0)
           (-45.0 45.0)
  end
  begin
     id 24 
     name rclavicle
     direction -0.858602 0.463947 -0.218075   
     length 3.35137  
     axis 0 0 0   XYZ 
    dof ry rz
    limits (-10.0 20.0)
           (-20.0 0.0)
  end
  begin
     id 25 
     name rhumerus
     direction -1 -4.48969e-011 -1.98511e-027  
     length 5.42351   
     axis 180 30 90   XYZ
    dof rx ry rz
    limits (-90.0 60.0)
           (-90.0 90.0)
           (-90.0 90.0)
  end
  begin
     id 26 
     name rradius
     direction -1 -4.48961e-011 -2.82624e-027   
     length 3.42066   
     axis 180 30 90   XYZ
    dof rx
    limits (-10.0 170.0)
  end
  begin
     id 27 
     name rwrist
     direction -1 -4.48966e-011 -3.80893e-027   
     length 1.71033   
     axis 1.1049e-015 -90 -90   XYZ
    dof ry
    limits (-180.0 0.0)
  end
  begin
     id 28
     name rhand
     direction -1 -4.48964e-011 -7.61786e-027   
     length 0.743608   
     axis 4.86085e-015 -90 -90   XYZ
    dof rx rz
    limits (-90.0 90.0)
           (-45.0 45.0)
  end
  begin
     id 29
     name rfingers
     direction -1 -4.48961e-011 -1.52357e-026   
     length 0.599516   
     axis 9.7217e-015 -90 -90   XYZ
    dof rx
    limits (0.0 90.0)
  end
  begin
     id 30
     name rthumb
     direction -0.707107 -6.34913e-011 0.707107   
     length 0.860789   
     axis -90 -45 -2.85299e-015   XYZ
    dof rx rz
    limits (-45.0 45.0)
           (-45.0 45.0)
  end
:hierarchy
  begin
    root lhipjoint rhipjoint lowerback
    lhipjoint lfemur
    lfemur ltibia
    ltibia lfoot
    lfoot ltoes
    rhipjoint rfemur
    rfemur rtibia
    rtibia rfoot
    rfoot rtoes
    lowerback upperback
    upperback thorax
    thorax lowerneck lclavicle rclavicle
    lowerneck upperneck
    upperneck head
    lclavicle lhumerus
    lhumerus lradius
    lradius lwrist
    lwrist lhand lthumb
    lhand lfingers
    rclavicle rhumerus
    rhumerus rradius
    rradius rwrist
    rwrist rhand rthumb
    rhand rfingers
  end

#!OML:ASF E:\mmandel\Project 1\Capture day 1\Session 2\Subject.ASF
:FULLY-SPECIFIED
:DEGREES
688
root 7.69195 14.7433 -2.3644 55.8022 81.87 -326.026
lowerback 27.2043 2.40606 -5.92468
upperback 3.74894 1.4941 -1.75902
thorax -10.9944 1.02445 0.859895
lowerneck -18.9086 -0.387936 0.634935
upperneck 6.5144 -0.480217 -1.24956
head 4.98474 -0.290416 -0.540177
rclavicle -3.37934e-014 -4.96962e-015
rhumerus -179.222 -174.752 96.4866
rradius 72.475
rwrist -2.19819
rhand -20.3734 43.4517
rfingers 7.12502
rthumb 5.97932 13.5561
lclavicle -3.37934e-014 -4.96962e-015
lhumerus 5.16524 -14.5503 77.1156
lradius 69.2692
lwrist 19.6916
lhand -24.3564 -35.9887
lfingers 7.12502
lthumb 2.13315 -6.01961
rfemur -60.7136 -17.1943 7.87421
rtibia 64.9727
rfoot -24.4368 0.383365
rtoes -17.9062
lfemur -57.9192 16.0098 -20.7424
ltibia 58.753
lfoot -19.6277 -4.43096
ltoes -11.3926
689
root 7.68537 14.7286 -2.38322 56.7106 82.0239 -325.275
lowerback 27.1415 2.37425 -5.92805
upperback 3.69975 1.45388 -1.73969
thorax -11.0167 1.0064 0.898907
lowerneck -18.7253 -0.404345 0.814088
upperneck 6.30873 -0.485602 -1.76354
head 4.89011 -0.323646 -0.730049
rclavicle 1.63003e-014 2.64384e-014
rhumerus -179.167 -174.654 96.542
rradius 72.0056
rwrist -1.9607
rhand -20.3515 43.4219
rfingers 7.12502
rthumb 6.0005 13.5269
lclavicle 1.63003e-014 2.64384e-014
lhumerus 5.28079 -14.6355 77.1293
lradius 68.911
lwrist 19.6236
lhand -24.2052 -35.9743
lfingers 7.12502
lthumb 2.27921 -6.00672
rfemur -60.9028 -17.229 7.80906
rtibia 65.0329
rfoot -24.3456 0.216149
rtoes -16.9859
lfemur -58.3491 15.8409 -20.8196
ltibia 59.041
lfoot -19.6671 -4.55109
ltoes -10.8041
690
root 7.67301 14.7194 -2.39875 57.6554 82.2353 -324.582
lowerback 27.0983 2.2959 -5.93694
upperback 3.57333 1.3424 -1.7226
thorax -11.1339 0.956995 0.961805
lowerneck -18.5541 -0.36552 1.07575
upperneck 6.15074 -0.442581 -2.23823
head 4.81331 -0.32767 -0.916047
rclavicle -1.49089e-015 -1.50082e-014
rhumerus -179.277 -174.624 96.503
rradius 71.7065
rwrist -1.7278
rhand -20.1789 43.3367
rfingers 7.12502
rthumb 6.16712 13.4465
lclavicle -1.49089e-015 -1.50082e-014
lhumerus 5.22872 -14.6653 77.0018
lradius 68.7135
lwrist 19.7241
lhand -23.9647 -35.8613
lfingers 7.12502
lthumb 2.51148 -5.89637
rfemur -61.1876 -17.2467 7.842
rtibia 65.1035
rfoot -24.2792 0.0682826
rtoes -16.1189
lfemur -58.8805 15.6958 -20.8825
ltibia 59.2603
lfoot -19.6565 -4.62767
ltoes -10.6502
691
root 7.66421 14.7174 -2.41616 58.623 82.3207 -323.655
lowerback 27.2539 2.26896 -6.00159
upperback 3.47452 1.26768 -1.73086
thorax -11.3255 0.92901 1.00976
lowerneck -18.5367 -0.309727 1.21498
upperneck 6.26551 -0.359676 -2.59959
head 4.84793 -0.309772 -1.045
rclavicle 3.47873e-015 -1.2921e-014
rhumerus -179.501 -174.562 96.5048
rradius 71.5509
rwrist -1.5982
rhand -19.9439 43.2313
rfingers 7.12502
rthumb 6.394 13.3478
lclavicle 3.47873e-015 -1.2921e-014
lhumerus 5.1002 -14.7635 76.9559
lradius 68.5364
lwrist 19.7396
lhand -23.9162 -35.7703
lfingers 7.12502
lthumb 2.55832 -5.80594
rfemur -61.2229 -17.2494 7.71657
rtibia 65.1739
rfoot -24.2922 -0.0221744
rtoes -15.6227
lfemur -59.0827 15.5907 -21.0226
ltibia 59.3879
lfoot -19.6948 -4.57783
ltoes -10.6681
692
root 7.65817 14.7119 -2.43195 60.2939 82.3098 -321.965
lowerback 27.2588 2.24207 -6.18251
upperback 3.52856 1.18383 -1.77148
thorax -11.2618 0.897991 1.09866
lowerneck -18.5711 -0.276159 1.25154
upperneck 6.22837 -0.300713 -2.79456
head 4.84285 -0.293083 -1.1068
rclavicle 1.59028e-014 -1.799e-014
rhumerus -179.393 -174.476 96.455
rradius 71.194
rwrist -1.44314
rhand -19.8679 43.1145
rfingers 7.12502
rthumb 6.46736 13.2332
lclavicle 1.59028e-014 -1.799e-014
lhumerus 5.18649 -14.8401 76.865
lradius 68.2023
lwrist 19.5386
lhand -24.0271 -35.8906
lfingers 7.12502
lthumb 2.45117 -5.92498
rfemur -61.1674 -17.2974 7.42332
rtibia 65.2036
rfoot -24.2877 -0.151612
rtoes -15.1765
lfemur -59.1797 15.4704 -21.294
ltibia 59.4546
lfoot -19.704 -4.59063
ltoes -10.582
693
root 7.64237 14.7008 -2.44207 63.0183 82.4856 -319.389
lowerback 27.1895 2.10088 -6.25403
upperback 3.53772 0.989395 -1.77821
thorax -11.2027 0.811705 1.20453
lowerneck -18.7032 -0.28586 1.21814
upperneck 6.24908 -0.290929 -2.91202
head 4.87031 -0.297849 -1.13832
rclavicle 4.47266e-015 2.64384e-014
rhumerus -179.142 -174.466 96.3904
rradius 70.6854
rwrist -1.29804
rhand -19.809 42.9907
rfingers 7.12502
rthumb 6.52419 13.1112
lclavicle 4.47266e-015 2.64384e-014
lhumerus 5.19363 -14.8735 76.7069
lradius 67.9211
lwrist 19.2797
lhand -24.1748 -35.9432
lfingers 7.12502
lthumb 2.30858 -5.97592
rfemur -61.2862 -17.4851 7.26737
rtibia 65.262
rfoot -24.2689 -0.369344
rtoes -14.8489
lfemur -59.5719 15.1734 -21.484
ltibia 59.5256
lfoot -19.5802 -4.67044
ltoes -10.7356
